<svg width="70" height="35" viewBox="0 0 70 35" fill="none" xmlns="http://www.w3.org/2000/svg">
<rect width="70" height="35" fill="white"/>
<path fill-rule="evenodd" clip-rule="evenodd" d="M34.2486 15.5631H19.2637C21.3429 15.4182 28.2098 15.2262 34.1394 15.284C34.1759 15.3568 34.2123 15.4904 34.2486 15.5631Z" fill="#003E7B"/>
<path fill-rule="evenodd" clip-rule="evenodd" d="M34.2486 15.6406H19.2637C21.3429 15.7857 28.2098 15.9778 34.1394 15.9199C34.1759 15.8471 34.2123 15.7136 34.2486 15.6406Z" fill="#003E7B"/>
<path fill-rule="evenodd" clip-rule="evenodd" d="M35.5977 15.5631H50.5827C48.5035 15.4182 41.6367 15.2262 35.7069 15.284C35.6706 15.3568 35.6341 15.4904 35.5977 15.5631Z" fill="#003E7B"/>
<path fill-rule="evenodd" clip-rule="evenodd" d="M35.5977 15.6406H50.5827C48.5035 15.7857 41.6367 15.9778 35.7069 15.9199C35.6706 15.8471 35.6341 15.7136 35.5977 15.6406Z" fill="#003E7B"/>
<path fill-rule="evenodd" clip-rule="evenodd" d="M34.1477 15.1426L34.4035 15.5968L34.1406 16.0522L34.6368 15.6637L34.9325 16.1323L35.2282 15.6637L35.7245 16.0522L35.4616 15.5968L35.7174 15.1426L35.2109 15.5035L34.9325 15.0625L34.6543 15.5035L34.1477 15.1426Z" fill="#003E7B"/>
<path fill-rule="evenodd" clip-rule="evenodd" d="M38.3888 5.94531C38.0561 5.9779 37.7186 6.04796 37.381 6.15299C36.9559 6.28547 36.5683 6.46297 36.2157 6.68306C36.6383 7.40579 36.8483 8.21591 36.8509 9.11123C36.8483 9.38373 36.8283 9.64882 36.7908 9.9064C36.6934 10.539 36.4782 11.1266 36.1406 11.6642C36.1482 11.6567 36.1582 11.6518 36.1657 11.6493C36.3957 11.5092 36.6434 11.3842 36.9059 11.2742C36.9458 11.2566 36.9859 11.2392 37.0284 11.2216C37.2109 11.1492 37.4036 11.0816 37.601 11.0216C37.6861 10.9941 37.7711 10.9716 37.8561 10.9491C38.0087 10.9066 38.1612 10.8715 38.3137 10.844L38.3288 10.8565C38.3313 10.8491 38.3338 10.844 38.3362 10.8391C38.3788 10.7665 38.4213 10.6916 38.4612 10.614C38.7689 10.0264 38.9514 9.4262 39.0089 8.81354C39.0663 8.18344 38.9939 7.54068 38.7864 6.88563C38.6813 6.54806 38.5488 6.23546 38.3888 5.94531Z" fill="#0095D6"/>
<path fill-rule="evenodd" clip-rule="evenodd" d="M39.729 9.39481C39.7965 9.15966 39.8414 8.92985 39.859 8.72228C39.8065 8.71978 39.7564 8.71729 39.704 8.71979C39.5739 8.72229 39.4388 8.73231 39.2989 8.75238C39.2613 8.75738 39.2239 8.76238 39.1863 8.76991C39.1263 8.77994 39.0662 8.79976 39.0087 8.81229C38.9512 9.42496 38.7687 10.0249 38.4611 10.6125C38.4211 10.6901 38.3785 10.7652 38.3359 10.8377C38.5811 10.7952 38.8211 10.7683 39.0587 10.7557C39.3612 10.3232 39.5864 9.86986 39.729 9.39481Z" fill="#A5CFEF"/>
<path fill-rule="evenodd" clip-rule="evenodd" d="M39.5725 10.7476C39.4049 10.74 39.2323 10.74 39.0598 10.75C38.7922 11.1277 38.4622 11.4877 38.0696 11.8329C38.0121 11.8804 37.957 11.9304 37.9021 11.9779C37.2545 12.5106 36.5817 12.8756 35.8841 13.0681C35.7314 13.1106 35.5764 13.1431 35.4239 13.1681C35.2838 13.1931 35.1489 13.2106 35.0213 13.2182C34.9989 13.2182 34.8779 13.2076 34.8555 13.2101C34.9679 13.2526 35.1864 13.3006 35.3139 13.3331C35.4664 13.3732 35.619 13.4057 35.7765 13.4331C36.4892 13.5457 37.2545 13.4958 38.0671 13.2782C38.137 13.2581 38.2071 13.2381 38.2797 13.2182C39.35 12.8955 40.1926 12.383 40.8078 11.6828C40.9678 11.4977 41.1004 11.3127 41.2055 11.1302C41.1579 11.1076 41.1103 11.0852 41.0628 11.0651C40.9428 11.0127 40.8153 10.9676 40.6802 10.9251C40.6427 10.9151 40.6077 10.9051 40.5727 10.8952C40.2951 10.8226 40.0102 10.7751 39.7175 10.755C39.67 10.75 39.62 10.7476 39.5725 10.7476Z" fill="#DFDD73"/>
<path fill-rule="evenodd" clip-rule="evenodd" d="M34.8547 13.2176L34.8618 13.2181C34.8654 13.2181 34.862 13.2177 34.8542 13.2173L34.8546 13.2177L34.8547 13.2176ZM30.3106 10.7476C30.4782 10.74 30.6508 10.74 30.8234 10.7501C31.0907 11.1277 31.4209 11.4877 31.8135 11.8328C31.871 11.8803 31.926 11.9303 31.9811 11.9778C32.6287 12.5105 33.3015 12.8756 33.999 13.068C34.1517 13.1106 34.3066 13.1431 34.4591 13.1682C34.5154 13.1784 34.5708 13.1873 34.6258 13.1948C34.6022 13.2058 34.5848 13.2208 34.5772 13.2377C33.6267 13.5787 32.7906 13.539 31.816 13.2781C31.746 13.2582 31.676 13.2381 31.6035 13.2182C30.5332 12.8956 29.6905 12.3829 29.0753 11.6827C28.9152 11.4977 28.7828 11.3127 28.6777 11.1301C28.7252 11.1077 28.7727 11.0851 28.8202 11.0652C28.9403 11.0126 29.0678 10.9675 29.2029 10.925C29.2404 10.915 29.2754 10.9051 29.3103 10.8951C29.588 10.8225 29.873 10.775 30.1657 10.7551C30.2131 10.7501 30.2631 10.7476 30.3106 10.7476Z" fill="#A5CFEF"/>
<path fill-rule="evenodd" clip-rule="evenodd" d="M38.3397 10.8359C38.1871 10.8635 38.0102 10.9039 37.8576 10.9464C37.7726 10.9688 37.6876 10.9914 37.6025 11.0189C37.4051 11.0789 37.2124 11.1464 37.0299 11.2189C36.9874 11.2364 36.9473 11.2539 36.9073 11.2714C36.6449 11.3815 36.3972 11.5064 36.1672 11.6466C36.1597 11.6491 36.1496 11.654 36.1421 11.6615C36.1272 11.684 36.1121 11.7065 36.0996 11.729C35.9071 12.0216 35.6795 12.2991 35.417 12.5617C35.2294 12.7492 35.0369 12.9168 34.8344 13.0668L34.8319 13.0719C34.8196 13.0942 34.7664 13.1404 34.7402 13.1717C34.7931 13.1755 34.8316 13.1901 34.8561 13.2142C35.0819 13.2059 35.4843 13.0532 35.5971 13.0118C36.0897 12.8544 36.5372 12.6418 36.9349 12.3692C37.4976 11.9815 37.9626 11.4765 38.3302 10.8538L38.3397 10.8359Z" fill="#D8D44C"/>
<path fill-rule="evenodd" clip-rule="evenodd" d="M38.3358 10.8404C37.9873 11.434 37.4709 12.0027 36.9329 12.3732C36.5354 12.6458 36.0878 12.8584 35.5952 13.0159C35.3632 13.0885 35.0384 13.1467 34.7988 13.1867C34.8221 13.1943 34.8412 13.2051 34.8543 13.2181C35.0403 13.2442 35.24 13.2085 35.4226 13.1759C35.5752 13.1509 35.7302 13.1184 35.8828 13.0759C36.5805 12.8833 37.2532 12.5184 37.9008 11.9856C37.9558 11.9381 38.0108 11.8881 38.0683 11.8406C38.4609 11.4954 38.7909 11.1354 39.0585 10.7578C38.821 10.7703 38.581 10.7979 38.3358 10.8404Z" fill="#C3C51C"/>
<path fill-rule="evenodd" clip-rule="evenodd" d="M34.614 5C34.3366 5.18395 34.0739 5.39998 33.826 5.65036C33.5159 5.95784 33.2584 6.2855 33.0508 6.63807C33.716 7.03567 34.2561 7.5808 34.6712 8.27344C35.0754 7.6327 35.584 7.12697 36.2166 6.68057C36.004 6.31544 35.7365 5.97287 35.4164 5.65036C35.166 5.39998 34.9033 5.18395 34.6284 5H34.614Z" fill="#0051A0"/>
<path fill-rule="evenodd" clip-rule="evenodd" d="M34.6715 8.27344C34.619 8.36594 34.5665 8.45856 34.519 8.55348C34.1164 9.3237 33.9264 10.1139 33.9514 10.9241C33.9563 11.0666 33.9663 11.2091 33.9839 11.3517C34.0214 11.6542 34.0889 11.9618 34.1864 12.2718C34.2189 12.3694 34.2514 12.4669 34.2863 12.5595C34.329 12.672 34.374 12.7794 34.4215 12.8846C34.4665 12.9871 34.514 13.0871 34.5665 13.1846C34.5743 13.1923 34.5708 13.2061 34.5941 13.2046H34.6033C34.6306 13.1844 34.6743 13.1715 34.7238 13.1715C34.7422 13.1715 34.7597 13.1732 34.7761 13.1765C34.7803 13.1694 34.7847 13.1623 34.7891 13.1546C34.8016 13.1271 34.8165 13.0996 34.8316 13.0721L34.8341 13.067C34.8491 13.0345 34.8642 13.0046 34.8791 12.9746L35.1542 12.2718C35.2317 12.0294 35.2892 11.7868 35.3292 11.5468C35.3392 11.4816 35.3493 11.4167 35.3568 11.3542C35.4767 10.3914 35.2992 9.45872 34.8266 8.55348C34.7766 8.45845 34.724 8.36594 34.6715 8.27344Z" fill="#D4D237"/>
<path fill-rule="evenodd" clip-rule="evenodd" d="M34.5187 8.55604C34.5663 8.46112 34.6188 8.3685 34.6713 8.27599C34.2562 7.58336 33.716 7.03823 33.0508 6.64062C32.2759 7.87118 32.1837 9.48571 32.6907 10.8341C32.7883 11.0991 32.8974 11.3543 33.0475 11.6019C33.4142 12.2268 33.9565 12.806 34.585 13.1872C34.5325 13.0897 34.4662 12.9897 34.4212 12.8871C34.3737 12.7821 34.3287 12.6746 34.2862 12.562C34.2511 12.4695 34.2187 12.372 34.1862 12.2743C34.0887 11.9644 34.0211 11.6568 33.9836 11.3543C33.9661 11.2117 33.9561 11.0692 33.9512 10.9266C33.9261 10.1164 34.1161 9.32626 34.5187 8.55604Z" fill="#ABB027"/>
<path fill-rule="evenodd" clip-rule="evenodd" d="M34.6719 8.27256C34.7244 8.36506 34.7769 8.45768 34.8269 8.5526C35.2996 9.45784 35.477 10.3905 35.357 11.3534C35.3495 11.4158 35.3395 11.4809 35.3296 11.5459C35.2895 11.7859 35.232 12.0285 35.1545 12.2709C35.0338 12.5794 34.9099 12.8759 34.7719 13.175C34.9744 13.0249 35.2295 12.7486 35.417 12.5611C35.6796 12.2985 35.9072 12.021 36.0997 11.7284C36.1122 11.7059 36.1273 11.6834 36.1422 11.6609C36.4798 11.1233 36.6949 10.5356 36.7923 9.90291C36.8298 9.64545 36.85 9.38036 36.8525 9.10785C36.85 8.21253 36.6399 7.40242 36.2172 6.67969C35.5846 7.07226 35.0694 7.60486 34.6719 8.27256Z" fill="#0063AE"/>
<path fill-rule="evenodd" clip-rule="evenodd" d="M31.9608 6.15299C31.6233 6.04785 31.2882 5.9779 30.9556 5.94531C30.793 6.23546 30.6605 6.54806 30.553 6.88563C30.3204 7.6283 30.2554 8.35352 30.3629 9.06361C30.443 9.58877 30.6155 10.1063 30.8806 10.614C30.9281 10.709 30.9806 10.8015 31.0355 10.8916C31.2031 10.9216 31.3756 10.959 31.5507 11.004C31.5632 11.0067 31.5732 11.0116 31.5858 11.0141C31.6583 11.034 31.7308 11.0566 31.8033 11.0791C32.0008 11.1366 32.1934 11.2041 32.3759 11.2792C32.6185 11.3742 32.8461 11.4817 33.0636 11.6018C32.9135 11.3542 32.7886 11.0991 32.6909 10.834C32.581 10.5415 32.5009 10.2388 32.4534 9.92384C32.4109 9.66124 32.391 9.38873 32.391 9.11123C32.391 8.19585 32.611 7.37321 33.0511 6.64056C32.7185 6.44053 32.3534 6.27797 31.9608 6.15299Z" fill="#C3C51C"/>
<path fill-rule="evenodd" clip-rule="evenodd" d="M29.4728 9.39772C29.4017 9.15518 29.3556 8.92597 29.3398 8.71258C29.3984 8.71119 29.4542 8.70949 29.5127 8.7131C29.6576 8.71821 29.808 8.73113 29.9637 8.75437C30.0056 8.7602 30.0472 8.76611 30.0889 8.77452C30.1557 8.78605 30.264 8.80139 30.328 8.81532C30.4157 9.53643 30.6703 10.2737 31.0473 10.8889C30.7749 10.8406 30.4931 10.819 30.2284 10.8015C29.8989 10.3517 29.623 9.88811 29.4728 9.39772Z" fill="#DFDD73"/>
<path fill-rule="evenodd" clip-rule="evenodd" d="M31.4224 12.023C31.4825 12.068 31.5425 12.113 31.5999 12.1581C32.2777 12.6531 32.9703 12.9781 33.6755 13.1307C33.828 13.1632 33.9831 13.1883 34.1406 13.2057C34.2458 13.2171 34.4798 13.2624 34.5781 13.2308L34.5796 13.2299C34.5852 13.2204 34.5938 13.2115 34.6048 13.2038C34.5942 13.2021 34.5835 13.2007 34.5757 13.2007C34.3032 13.1632 34.0281 13.1007 33.7506 13.0132C33.0578 12.7957 32.4627 12.4655 31.9651 12.0229C31.6775 11.7704 31.4249 11.4803 31.2023 11.1527C31.1449 11.0652 31.0659 10.9223 31.0134 10.8348C30.7384 10.7873 30.452 10.7574 30.1895 10.75C30.5021 11.1826 30.9398 11.6453 31.4224 12.023Z" fill="#009ADA"/>
<path fill-rule="evenodd" clip-rule="evenodd" d="M31.0137 10.8359C31.0662 10.9235 31.1454 11.0665 31.2028 11.1539C31.4254 11.4816 31.678 11.7716 31.9656 12.0242C32.4631 12.4668 33.0583 12.7969 33.751 13.0144C34.0204 13.0993 34.3306 13.1723 34.5979 13.2107C34.6024 13.207 34.6073 13.2036 34.6128 13.2003C34.3264 13.0441 34.0778 12.792 33.8254 12.5643C33.798 12.5392 33.7735 12.5144 33.7486 12.4868C33.4809 12.2092 33.2514 11.914 33.0639 11.6015C32.8463 11.4815 32.6182 11.374 32.3756 11.279C31.9584 11.1075 31.4543 10.9148 31.0137 10.8359Z" fill="#7CC2ED"/>
<path fill-rule="evenodd" clip-rule="evenodd" d="M28.7521 17.9151H28.6456C28.4169 17.9151 28.3016 17.9986 28.3016 18.1655V23.8955H27.6066L25.5446 18.5603H25.5236V23.204C25.5236 23.5682 25.658 23.7495 25.9235 23.7495H26.154V23.8955H24.8846V23.7495C25.0557 23.7495 25.1726 23.7206 25.2373 23.6628C25.3037 23.605 25.335 23.496 25.335 23.3355V17.9151H24.8846V17.7708H26.1749L28.0921 22.7675H28.1131V18.3291C28.1131 18.0531 27.9665 17.9151 27.673 17.9151H27.4845V17.7708H28.7521V17.9151ZM56.8458 22.7477V22.7292H56.7371C56.6953 23.0986 56.614 23.3689 56.4944 23.5394C56.3736 23.7108 56.1989 23.7955 55.9705 23.7955H55.8054V19.7988H56.114V19.7H54.9012V19.7988H55.2098V23.7955H54.9012V23.8955H56.8317L56.8458 22.7477ZM23.3016 19.7988H23.2071C23.0325 19.7988 22.9201 19.9121 22.8711 20.1374L22.0302 23.9538H21.8962L20.9047 19.7988H20.6176V19.7H21.8017V19.7988H21.5075L22.1809 22.7074L22.7407 20.1626C22.755 20.0836 22.7622 20.0285 22.7622 19.9989C22.7622 19.8659 22.6857 19.7988 22.535 19.7988H22.3698V19.7H23.3016V19.7988ZM20.4669 19.7988H20.1583V23.7955H20.4598V23.8955H19.2541V23.7955H19.5626V19.7988H19.2541V19.7H20.4669V19.7988ZM18.9527 23.8955H17.7973V23.7955H18.0461V21.6125H17.2363V23.7955H17.4887V23.8955H16.3321V23.7955H16.6406V19.7988H16.3321V19.7H17.4887V19.7988H17.2363V21.5158H18.0461V19.7988H17.7973V19.7H18.9527V19.7988H18.6417V23.7955H18.9527V23.8955ZM30.0808 20.2763V20.9372L30.0696 20.8882L29.6903 22.6238H30.0808V22.7205H29.67C29.5504 23.2613 29.4906 23.5537 29.4906 23.5987C29.4906 23.7306 29.5672 23.7955 29.719 23.7955H29.8829V23.8955H28.9512V23.7955H29.0457C29.2215 23.7955 29.3327 23.6846 29.3817 23.4602L30.0808 20.2763ZM15.4916 19.4492C15.4131 18.9212 15.2734 18.5217 15.0708 18.2488C14.87 17.9778 14.6326 17.8413 14.3602 17.8413C14.1804 17.8413 14.0284 17.9136 13.9062 18.0611C13.7822 18.2088 13.7211 18.4013 13.7211 18.6404C13.7211 18.91 13.784 19.1587 13.9097 19.3866C14.0371 19.616 14.2764 19.9097 14.6326 20.2659C15.1302 20.7649 15.4777 21.1869 15.675 21.5351C15.8723 21.8833 15.9718 22.2299 15.9718 22.5748C15.9718 22.9729 15.8374 23.3034 15.5702 23.5665C15.3031 23.8297 14.9294 23.9613 14.4527 23.9613C14.1908 23.9613 13.9324 23.8651 13.681 23.674C13.5814 23.5954 13.5116 23.557 13.4697 23.557C13.2934 23.557 13.1938 23.6692 13.1746 23.8955H13.0209V21.9876H13.1746C13.2497 22.5765 13.4086 23.0291 13.6548 23.3451C13.901 23.6612 14.1698 23.8201 14.4632 23.8201C14.7024 23.8201 14.8857 23.7463 15.015 23.5987C15.1442 23.4526 15.2105 23.2424 15.2105 22.9696C15.2105 22.6712 15.1232 22.3759 14.9521 22.0807C14.7792 21.787 14.4859 21.4356 14.0686 21.0281C13.6932 20.6607 13.4225 20.335 13.2532 20.0477C13.0838 19.7604 13 19.478 13 19.1988C13 18.7191 13.1274 18.3485 13.3841 18.0868C13.6391 17.8253 13.9621 17.6953 14.3497 17.6953C14.5679 17.6953 14.8037 17.7676 15.0569 17.9103C15.1721 17.9794 15.2541 18.0146 15.3013 18.0146C15.4288 18.0146 15.4916 17.944 15.4916 17.8028V17.7708H15.6505V19.4492H15.4916ZM30.0808 22.7205V22.6238H30.4714L30.0808 20.9372V20.2763L30.2202 19.6418H30.3565L31.3481 23.7955H31.6352V23.8955H30.4511V23.7955H30.7453L30.4929 22.7205H30.0808ZM33.0352 19.7007V19.8026C33.0143 19.8 32.9926 19.7988 32.97 19.7988H32.6901V23.7955H32.8971C32.9469 23.7955 32.993 23.7904 33.0352 23.7808V23.8911C32.9983 23.894 32.9601 23.8955 32.9209 23.8955H31.786V23.7955H32.0946V19.7988H31.786V19.7H32.9916C33.0063 19.7 33.0208 19.7002 33.0352 19.7007ZM33.0352 23.8911V23.7808C33.1291 23.7591 33.2042 23.7132 33.2595 23.6427C33.3397 23.5404 33.3802 23.3877 33.3802 23.1844V20.2078C33.3802 20.0836 33.3432 19.9847 33.2678 19.911C33.207 19.8499 33.1296 19.8137 33.0352 19.8026V19.7007C33.3994 19.7137 33.6539 19.8903 33.7989 20.2309C33.9495 20.5848 34.0249 21.1245 34.0249 21.851C34.0249 22.3941 33.9867 22.8062 33.9113 23.0876C33.8348 23.3689 33.7175 23.5734 33.5572 23.7021C33.4208 23.8115 33.247 23.8747 33.0352 23.8911ZM35.2492 20.2764V20.9372L35.2377 20.8882L34.8586 22.6238H35.2492V22.7205H34.8382C34.7187 23.2613 34.6589 23.5537 34.6589 23.5987C34.6589 23.7306 34.7354 23.7955 34.8874 23.7955H35.0512V23.8955H34.1194V23.7955H34.2139C34.3898 23.7955 34.501 23.6846 34.5501 23.4602L35.2492 20.2764ZM35.2492 22.7205V22.6238H35.6396L35.2492 20.9372V20.2764L35.3885 19.6418H35.5249L36.5164 23.7955H36.8035V23.8955H35.6193V23.7955H35.9136L35.6612 22.7205H35.2492ZM38.1772 19.7V19.8011C38.1622 19.7996 38.147 19.7988 38.1312 19.7988H37.8584V21.5807H38.1455C38.1563 21.5807 38.1668 21.5802 38.1772 21.5793V21.6801C38.1691 21.6798 38.1609 21.6795 38.1526 21.6795H37.8584V23.7955H38.1669V23.8955H36.9541V23.7955H37.2628V19.7988H36.9541V19.7H38.1772ZM49.3442 23.8955H48.1887V23.7955H48.4376V21.6125H47.6279V23.7955H47.8801V23.8955H46.7235V23.7955H47.0321V19.7988H46.7235V19.7H47.8801V19.7988H47.6279V21.5158H48.4376V19.7988H48.1887V19.7H49.3442V19.7988H49.0332V23.7955H49.3442V23.8955ZM46.4784 23.8955H46.3731C46.3349 23.8229 46.287 23.7592 46.2295 23.7054C46.1052 23.8626 45.9545 23.9405 45.7775 23.9405C45.4246 23.9405 45.1567 23.7537 44.9749 23.3789C44.792 23.0041 44.701 22.4589 44.701 21.7444C44.701 21.0772 44.7836 20.5606 44.9462 20.1956C45.11 19.8308 45.3852 19.6483 45.7703 19.6483C45.9269 19.6483 46.0621 19.7274 46.177 19.8868C46.2415 19.8286 46.2893 19.766 46.3205 19.7H46.4294V20.7167H46.3205C46.2427 20.3824 46.1615 20.1363 46.0753 19.978C45.988 19.8198 45.8863 19.7417 45.7703 19.7417C45.6483 19.7417 45.549 19.8033 45.4701 19.9264C45.3923 20.0495 45.3528 20.2144 45.3528 20.421V23.1965C45.3528 23.3877 45.3935 23.5448 45.4736 23.6669C45.555 23.7889 45.6578 23.8504 45.7846 23.8504C45.9402 23.8504 46.0621 23.7614 46.1507 23.5833C46.2379 23.4053 46.3122 23.1206 46.3731 22.7292H46.4784V23.8955ZM43.7733 19.4492C43.6947 18.9212 43.555 18.5217 43.3524 18.2488C43.1516 17.9778 42.9142 17.8413 42.6418 17.8413C42.462 17.8413 42.3101 17.9136 42.1878 18.0611C42.0638 18.2088 42.0028 18.4013 42.0028 18.6404C42.0028 18.91 42.0655 19.1587 42.1912 19.3866C42.3188 19.616 42.5581 19.9097 42.9142 20.2659C43.4119 20.7649 43.7592 21.1869 43.9567 21.5351C44.1538 21.8833 44.2535 22.2299 44.2535 22.5748C44.2535 22.9729 44.119 23.3034 43.8519 23.5665C43.5847 23.8297 43.211 23.9613 42.7343 23.9613C42.4725 23.9613 42.2141 23.8651 41.9626 23.674C41.8631 23.5954 41.7932 23.557 41.7513 23.557C41.5749 23.557 41.4755 23.6692 41.4562 23.8955H41.3025V21.9876H41.4562C41.5312 22.5765 41.6902 23.0291 41.9363 23.3451C42.1825 23.6612 42.4515 23.8201 42.7449 23.8201C42.9841 23.8201 43.1674 23.7463 43.2966 23.5987C43.4258 23.4526 43.4921 23.2424 43.4921 22.9696C43.4921 22.6712 43.4049 22.3759 43.2338 22.0807C43.0609 21.787 42.7675 21.4356 42.3502 21.0281C41.9748 20.6607 41.7041 20.335 41.5348 20.0477C41.3653 19.7604 41.2816 19.478 41.2816 19.1988C41.2816 18.7191 41.4092 18.3485 41.6657 18.0868C41.9207 17.8253 42.2437 17.6953 42.6313 17.6953C42.8496 17.6953 43.0853 17.7676 43.3385 17.9103C43.4537 17.9794 43.5357 18.0146 43.583 18.0146C43.7104 18.0146 43.7733 17.944 43.7733 17.8028V17.7708H43.9322V19.4492H43.7733ZM38.1772 21.6801V21.5793C38.2656 21.5719 38.3389 21.533 38.3979 21.4641C38.4636 21.3872 38.4959 21.2871 38.4959 21.1651V20.3341C38.4959 20.1561 38.4659 20.022 38.405 19.9329C38.352 19.8556 38.2762 19.8114 38.1772 19.8011V19.7H38.2746C38.5534 19.7 38.7663 19.7835 38.9145 19.9528C39.0629 20.121 39.137 20.3573 39.137 20.6627C39.137 20.9628 39.0832 21.1849 38.9743 21.3279C38.8655 21.4696 38.6944 21.5675 38.4613 21.6191V21.6345H38.5174C38.6849 21.6345 38.8224 21.6982 38.9265 21.8269C39.0318 21.9544 39.0843 22.1258 39.0843 22.3402V23.4669C39.0843 23.6108 39.1298 23.6833 39.2207 23.6833C39.3176 23.6833 39.3762 23.6152 39.4001 23.4801L39.5091 23.4998C39.4599 23.7845 39.3093 23.9274 39.0569 23.9274C38.8763 23.9274 38.7374 23.8603 38.6382 23.7262C38.539 23.5921 38.4888 23.3954 38.4888 23.136V22.05C38.4888 21.9279 38.4613 21.8356 38.405 21.773C38.353 21.7161 38.2773 21.6845 38.1772 21.6801ZM50.8087 19.6483V19.7483H50.8021C50.6802 19.7483 50.5809 19.8088 50.5019 19.9297C50.4243 20.0506 50.3848 20.2144 50.3848 20.421V23.1965C50.3848 23.3899 50.4255 23.5461 50.5056 23.6658C50.584 23.7804 50.6848 23.8396 50.8087 23.8436V23.9405C50.4561 23.9403 50.1884 23.7535 50.0068 23.3789C49.8238 23.0041 49.7328 22.4589 49.7328 21.7444C49.7328 21.0772 49.8154 20.5606 49.9782 20.1956C50.142 19.8308 50.4172 19.6483 50.8021 19.6483H50.8087ZM50.8087 23.9405V23.8436C50.8134 23.8438 50.8179 23.8439 50.8226 23.8439C50.9421 23.8439 51.0401 23.7845 51.1167 23.6658C51.1945 23.5461 51.2328 23.3899 51.2328 23.1965V20.366C51.2328 20.1792 51.1921 20.0298 51.1108 19.9165C51.0297 19.8064 50.929 19.7503 50.8087 19.7483V19.6483L50.8226 19.6483C51.1825 19.6483 51.4493 19.8187 51.624 20.1606C51.7973 20.5013 51.8847 21.0299 51.8847 21.7444C51.8847 22.4765 51.795 23.025 51.6143 23.391C51.4349 23.7582 51.1658 23.9406 50.8094 23.9406L50.8087 23.9405ZM53.4367 19.6483V19.7483H53.43C53.308 19.7483 53.2087 19.8088 53.1298 19.9297C53.0521 20.0506 53.0126 20.2144 53.0126 20.421V23.1965C53.0126 23.3899 53.0532 23.5461 53.1334 23.6658C53.2118 23.7804 53.3125 23.8396 53.4367 23.8436V23.9405C53.084 23.9403 52.8163 23.7535 52.6347 23.3789C52.4516 23.0041 52.3606 22.4589 52.3606 21.7444C52.3606 21.0772 52.4432 20.5606 52.606 20.1956C52.7698 19.8308 53.0449 19.6483 53.43 19.6483H53.4367ZM53.4367 23.9405V23.8436C53.4412 23.8438 53.4457 23.8439 53.4503 23.8439C53.57 23.8439 53.668 23.7845 53.7445 23.6658C53.8223 23.5461 53.8606 23.3899 53.8606 23.1965V20.366C53.8606 20.1792 53.8199 20.0298 53.7386 19.9165C53.6575 19.8064 53.5568 19.7503 53.4367 19.7483V19.6483L53.4503 19.6483C53.8104 19.6483 54.0771 19.8187 54.2517 20.1606C54.4252 20.5013 54.5125 21.0299 54.5125 21.7444C54.5125 22.4765 54.4227 23.025 54.2422 23.391C54.0628 23.7582 53.7936 23.9406 53.4372 23.9406L53.4367 23.9405Z" fill="#003E7B"/>
<path fill-rule="evenodd" clip-rule="evenodd" d="M22.2697 28.336V28.4371C22.2452 28.4337 22.2198 28.4321 22.1935 28.4321C22.0389 28.4321 21.9424 28.4931 21.9031 28.6171C21.8639 28.7401 21.8443 28.9901 21.8443 29.3663C21.8443 29.6914 21.869 29.8958 21.9191 29.9809C21.9685 30.0653 22.049 30.1079 22.1594 30.1079C22.1976 30.1079 22.2344 30.1033 22.2697 30.0944V30.2091C22.2251 30.2201 22.1776 30.2256 22.1274 30.2256C21.9278 30.2256 21.7514 30.131 21.599 29.9414C21.4466 29.751 21.3704 29.5367 21.3704 29.2959C21.3704 29.0389 21.4509 28.8137 21.6114 28.6202C21.7725 28.4265 21.962 28.3299 22.1804 28.3299C22.2112 28.3299 22.2411 28.3318 22.2697 28.336ZM19.3402 27.2439V28.5473H19.5972C19.6878 28.5473 19.7648 28.5381 19.8279 28.5196C19.8911 28.5002 19.9477 28.4491 19.9978 28.3663C20.0485 28.2827 20.0769 28.1534 20.0841 27.9761H20.1945V29.2641H20.0841C20.0726 29.0196 20.0283 28.8577 19.9514 28.7804C19.8736 28.7022 19.7561 28.6635 19.5972 28.6635H19.3402V30.0537H19.9201C20.2489 30.0537 20.4769 29.9794 20.6039 29.8323C20.7309 29.6852 20.8064 29.4576 20.8304 29.1512H20.9392L20.9116 30.169H18.3828V30.0537H18.8357V27.2439H18.3828V27.1277H20.8071L20.8558 27.9398H20.7476C20.7106 27.6936 20.6351 27.5155 20.5204 27.4071C20.405 27.2981 20.2141 27.2439 19.9463 27.2439H19.3402ZM27.5096 29.5521H27.601C27.5589 29.7711 27.4754 29.9383 27.3506 30.0537C27.2258 30.1683 27.0755 30.2256 26.8999 30.2256C26.6604 30.2256 26.4571 30.131 26.2916 29.9414C26.1254 29.751 26.0426 29.5335 26.0426 29.2866C26.0426 29.0327 26.1276 28.8098 26.2982 28.6179C26.4681 28.426 26.6791 28.3299 26.9318 28.3299C27.1118 28.3299 27.2584 28.3786 27.3717 28.4761C27.4849 28.5737 27.5415 28.6828 27.5415 28.8036C27.5415 28.864 27.5226 28.9188 27.4835 28.9669C27.4443 29.0157 27.3935 29.0397 27.331 29.0397C27.2701 29.0397 27.22 29.0196 27.1794 28.9785C27.1387 28.9375 27.1183 28.884 27.1183 28.8175C27.1183 28.7703 27.1358 28.7246 27.1706 28.679C27.2054 28.6341 27.2228 28.603 27.2228 28.5861C27.2228 28.545 27.1968 28.5094 27.1445 28.4785C27.0915 28.4475 27.0239 28.4321 26.9398 28.4321C26.7925 28.4321 26.6828 28.4747 26.6117 28.559C26.5398 28.6433 26.5042 28.8229 26.5042 29.0961C26.5042 29.3701 26.5109 29.5722 26.5247 29.7031C26.5376 29.8338 26.5732 29.9368 26.6313 30.0111C26.6902 30.0862 26.7852 30.1234 26.9188 30.1234C27.1997 30.1234 27.3963 29.9329 27.5096 29.5521ZM25.4555 28.3863V30.0537H25.7428V30.169H25.4555C25.2348 30.169 25.0947 30.1783 25.0366 30.1961V29.7743H25.0279C24.9009 30.056 24.6998 30.1961 24.4261 30.1961C24.2694 30.1961 24.1424 30.152 24.0466 30.0637C23.9515 29.9755 23.9036 29.7889 23.9036 29.5049V28.5024H23.5951V28.3863H24.318V29.5838C24.318 29.7711 24.3289 29.9011 24.35 29.9732C24.371 30.0443 24.4254 30.0808 24.5133 30.0808C24.6439 30.0808 24.7644 30.0065 24.8755 29.8571C24.9858 29.7084 25.041 29.484 25.041 29.1852V28.5024H24.7006V28.3863H25.4555ZM22.2697 30.2091V30.0944C22.3442 30.0754 22.412 30.037 22.4737 29.9786C22.5644 29.8926 22.6246 29.7944 22.6529 29.6837C22.6812 29.573 22.6951 29.3942 22.6951 29.1464C22.6951 28.9103 22.6507 28.7323 22.5615 28.6124C22.4873 28.512 22.3901 28.4538 22.2697 28.4371V28.336C22.4475 28.3614 22.5812 28.4662 22.6718 28.6495H22.6805V27.2439H22.2929V27.1277H22.6805C22.8235 27.1277 22.9658 27.1169 23.1081 27.0938V30.0537H23.3947V30.169H23.1567C23.0064 30.169 22.8474 30.1783 22.6805 30.1961V29.8246H22.6718C22.5813 30.038 22.4473 30.1662 22.2697 30.2091ZM28.685 29.1829V29.2934C28.5967 29.3145 28.5312 29.3437 28.4888 29.3811C28.4046 29.4545 28.3631 29.5606 28.3631 29.6999C28.3631 29.8005 28.3879 29.8795 28.4387 29.9352C28.4888 29.9917 28.5468 30.0196 28.6114 30.0196C28.6368 30.0196 28.6613 30.0168 28.685 30.0114V30.164C28.6031 30.2049 28.5163 30.2256 28.4249 30.2256C28.2775 30.2256 28.1593 30.183 28.0715 30.0978C27.9836 30.0119 27.9401 29.9074 27.9401 29.7835C27.9401 29.4615 28.1885 29.2609 28.685 29.1829ZM28.685 28.3612V28.4597C28.4843 28.4655 28.3842 28.5125 28.3842 28.6C28.3842 28.6271 28.3936 28.6565 28.4133 28.689C28.4322 28.7216 28.4415 28.7602 28.4415 28.8036C28.4415 28.8655 28.4226 28.9127 28.3842 28.9452C28.3458 28.9777 28.3029 28.9939 28.2543 28.9939C28.1919 28.9939 28.1439 28.9739 28.1098 28.9321C28.0758 28.8903 28.0591 28.8415 28.0591 28.7858C28.0591 28.665 28.1251 28.5629 28.2579 28.4808C28.3654 28.4134 28.5082 28.3736 28.685 28.3612ZM32.2711 28.3523V30.0537H32.5492V30.169H31.5605V30.0537H31.8581V28.5024H31.5605V28.3863H31.8625C32.0069 28.3863 32.1435 28.3755 32.2711 28.3523ZM31.8437 27.4791C31.8437 27.4125 31.8668 27.3554 31.9126 27.3073C31.9583 27.2585 32.0127 27.2346 32.0752 27.2346C32.1376 27.2346 32.1921 27.2585 32.2378 27.3058C32.2843 27.3537 32.3067 27.4111 32.3067 27.4791C32.3067 27.5504 32.2843 27.6092 32.2393 27.6564C32.1935 27.7029 32.139 27.7269 32.0752 27.7269C32.0114 27.7269 31.9569 27.7029 31.9118 27.6549C31.8661 27.6076 31.8437 27.5489 31.8437 27.4791ZM30.7077 27.8693V28.3863H31.2121V28.5024H30.7077V29.6248C30.7077 29.7897 30.7178 29.902 30.7389 29.9624C30.7592 30.0235 30.8144 30.0537 30.9037 30.0537C30.9719 30.0537 31.0372 30.0289 31.1004 29.9809C31.1635 29.9322 31.2115 29.8578 31.244 29.7564H31.3355C31.2702 30.0499 31.072 30.1961 30.7418 30.1961C30.6032 30.1961 30.5009 30.169 30.4355 30.1156C30.3702 30.0622 30.3303 29.9957 30.3157 29.9174C30.3005 29.8385 30.2933 29.7325 30.2933 29.5978V28.5024H29.9151V28.3863H30.2933V27.9081C30.4333 27.9081 30.5719 27.8948 30.7077 27.8693ZM28.685 30.164V30.0114C28.7403 29.9988 28.7912 29.9715 28.8379 29.9298C28.9054 29.8703 28.9505 29.8099 28.9736 29.7495C28.9961 29.689 29.007 29.6055 29.007 29.5002V29.2549C28.8781 29.2602 28.7709 29.273 28.685 29.2934V29.1829C28.7828 29.1676 28.89 29.157 29.007 29.1512V28.9196C29.007 28.7308 28.9925 28.6061 28.9635 28.5473C28.9344 28.4886 28.856 28.4592 28.7291 28.4592C28.7138 28.4592 28.6993 28.4593 28.685 28.4597V28.3612C28.7255 28.3584 28.7677 28.357 28.8117 28.357C29.002 28.357 29.1406 28.3802 29.2284 28.4274C29.3163 28.4747 29.3707 28.5327 29.3909 28.6024C29.412 28.6713 29.4222 28.7695 29.4222 28.8965V29.7317C29.4222 29.8541 29.4301 29.9298 29.4462 29.96C29.4628 29.9911 29.4883 30.0057 29.5216 30.0057C29.5732 30.0057 29.6226 29.9686 29.6705 29.8943H29.722C29.685 30.1157 29.5644 30.2256 29.3605 30.2256C29.1631 30.2256 29.0455 30.1048 29.007 29.8625C28.9096 30.005 28.8023 30.1054 28.685 30.164ZM33.6923 28.3299V28.4321H33.6916C33.5893 28.4321 33.5051 28.4592 33.4398 28.5125C33.3737 28.566 33.333 28.6372 33.3171 28.7269C33.3019 28.816 33.2939 28.9994 33.2939 29.2781C33.2939 29.5576 33.3034 29.7425 33.3222 29.8331C33.3418 29.9245 33.3831 29.9949 33.4478 30.0466C33.5123 30.0978 33.5937 30.1234 33.6916 30.1234H33.6923V30.2255L33.6829 30.2256C33.4478 30.2256 33.2438 30.1341 33.0725 29.95C32.9013 29.7665 32.8156 29.5405 32.8156 29.2734C32.8156 29.0117 32.8997 28.7889 33.0681 28.6054C33.2364 28.4228 33.4443 28.3307 33.6923 28.3299ZM35.1905 30.0537V28.5024H34.8885V28.3863H35.0817C35.2733 28.3863 35.4468 28.3755 35.6028 28.3523V28.7951H35.6116C35.7574 28.4846 35.9636 28.3299 36.23 28.3299C36.3548 28.3299 36.4572 28.3639 36.5377 28.4321C36.6175 28.5002 36.672 28.5799 36.701 28.672C36.73 28.7649 36.7445 28.9073 36.7445 29.1009V30.0537H37.0763V30.169H36.047V30.0537H36.3301V28.9196C36.3301 28.7455 36.3199 28.6256 36.2996 28.559C36.2786 28.4925 36.2255 28.4592 36.1385 28.4592C36.0014 28.4592 35.8779 28.5343 35.7676 28.6851C35.658 28.8353 35.6028 29.0373 35.6028 29.2912V30.0537H35.8815V30.169H34.8885V30.0537H35.1905ZM33.6923 30.2255V30.1234C33.7908 30.1233 33.8732 30.0977 33.9392 30.0452C34.0053 29.9933 34.0466 29.9206 34.0648 29.8277C34.0821 29.7348 34.0908 29.5498 34.0908 29.2734C34.0908 28.9947 34.0821 28.8113 34.0648 28.7224C34.0466 28.6333 34.0074 28.5621 33.9457 28.5103C33.8842 28.4585 33.7995 28.4322 33.6923 28.4321V28.3299H33.696C33.9399 28.3299 34.1461 28.418 34.3158 28.5938C34.485 28.7703 34.5699 28.9909 34.5699 29.2549C34.5699 29.5258 34.4821 29.7548 34.3057 29.9429C34.1323 30.1295 33.928 30.223 33.6923 30.2255ZM39.7945 28.8432C39.7336 28.9725 39.7031 29.1159 39.7031 29.2734C39.7031 29.4327 39.7336 29.5774 39.7945 29.7072V28.8432ZM39.7945 27.2244V27.6419C39.762 27.6665 39.7237 27.6788 39.6799 27.6788C39.6283 27.6788 39.5848 27.6603 39.5477 27.6224C39.5108 27.5845 39.4926 27.5372 39.4926 27.4791C39.4926 27.3902 39.5391 27.3159 39.6327 27.257C39.5906 27.2167 39.5282 27.1959 39.4454 27.1959C39.3663 27.1959 39.2909 27.2215 39.2204 27.2734C39.1493 27.3244 39.1065 27.4017 39.0905 27.5055C39.0753 27.6092 39.0674 27.7756 39.0674 28.0055V28.3863H39.4629V28.5024H39.0674V30.0537H39.4244V30.169H38.3313V30.0537H38.6484V28.5024H38.2949V28.3863H38.6484C38.6369 27.9861 38.7145 27.6704 38.8814 27.4397C39.0476 27.209 39.2459 27.0938 39.4752 27.0938C39.5862 27.0938 39.682 27.1277 39.7633 27.1959C39.7746 27.2052 39.7849 27.2147 39.7945 27.2244ZM39.7945 27.6419V27.2244C39.8556 27.2868 39.886 27.36 39.886 27.4436C39.886 27.5094 39.8665 27.5658 39.8273 27.6108C39.8171 27.6228 39.8062 27.633 39.7945 27.6419ZM40.5799 28.3299V28.4321H40.5793C40.4768 28.4321 40.3926 28.4592 40.3274 28.5125C40.2613 28.566 40.2205 28.6372 40.2046 28.7269C40.1893 28.816 40.1815 28.9994 40.1815 29.2781C40.1815 29.5576 40.1909 29.7425 40.2097 29.8331C40.2293 29.9245 40.2707 29.9949 40.3353 30.0466C40.3998 30.0978 40.4812 30.1234 40.5793 30.1234H40.5799V30.2255L40.5706 30.2256C40.3353 30.2256 40.1314 30.1341 39.9601 29.95C39.8909 29.8759 39.8358 29.795 39.7945 29.7072V28.8432C39.8349 28.7577 39.8886 28.6785 39.9557 28.6054C40.124 28.4228 40.3318 28.3307 40.5799 28.3299ZM47.9879 28.3523V30.0537H48.2659V30.169H47.2774V30.0537H47.5748V28.5024H47.2774V28.3863H47.5793C47.7238 28.3863 47.8602 28.3755 47.9879 28.3523ZM47.5604 27.4791C47.5604 27.4125 47.5835 27.3554 47.6293 27.3073C47.6751 27.2585 47.7295 27.2346 47.7919 27.2346C47.8543 27.2346 47.9088 27.2585 47.9545 27.3058C48.001 27.3537 48.0235 27.4111 48.0235 27.4791C48.0235 27.5504 48.001 27.6092 47.956 27.6564C47.9103 27.7029 47.8558 27.7269 47.7919 27.7269C47.7281 27.7269 47.6737 27.7029 47.6285 27.6549C47.5829 27.6076 47.5604 27.5489 47.5604 27.4791ZM45.5143 27.2439V30.0537H46.1543C46.2778 30.0537 46.3751 30.0436 46.4463 30.0235C46.5166 30.0042 46.5863 29.957 46.6553 29.8811C46.7242 29.8051 46.7772 29.7154 46.8149 29.611C46.8526 29.5073 46.8926 29.3616 46.9347 29.1759H47.0349L46.9564 30.169H44.5597V30.0537H45.0084V27.2439H44.5597V27.1277H45.989V27.2439H45.5143ZM42.0737 30.0537V28.5024H41.729V28.3863H42.0781C42.2566 28.3863 42.3924 28.377 42.486 28.357V28.7858H42.4948C42.5941 28.5002 42.7407 28.357 42.9346 28.357C43.0203 28.357 43.0884 28.3847 43.1399 28.4398C43.1916 28.4947 43.2177 28.5621 43.2177 28.6402C43.2177 28.7131 43.1966 28.7719 43.1553 28.816C43.1132 28.8608 43.0587 28.8833 42.9927 28.8833C42.8707 28.8833 42.8097 28.8183 42.8097 28.6883L42.8176 28.5907C42.8176 28.5558 42.8032 28.5388 42.7734 28.5388C42.7262 28.5388 42.6668 28.6055 42.5949 28.7401C42.5222 28.8747 42.486 29.0807 42.486 29.357V30.0537H42.8394V30.169H41.729V30.0537H42.0737ZM40.5799 30.2255V30.1234C40.6784 30.1233 40.7608 30.0976 40.8267 30.0452C40.8927 29.9933 40.9342 29.9206 40.9523 29.8277C40.9696 29.7348 40.9785 29.5498 40.9785 29.2734C40.9785 28.9947 40.9696 28.8113 40.9523 28.7224C40.9342 28.6333 40.895 28.5621 40.8333 28.5103C40.7716 28.4585 40.687 28.4322 40.5799 28.4321V28.3299H40.5835C40.8274 28.3299 41.0336 28.418 41.2034 28.5938C41.3726 28.7703 41.4575 28.9909 41.4575 29.2549C41.4575 29.5258 41.3697 29.7548 41.1933 29.9429C41.02 30.1293 40.8155 30.223 40.5799 30.2255ZM49.977 28.9029C49.9352 29.0156 49.9143 29.1392 49.9143 29.2734C49.9143 29.4097 49.9352 29.5345 49.977 29.6479V28.9029ZM49.977 27.2575V27.6153C49.9392 27.6578 49.8912 27.6788 49.8337 27.6788C49.7822 27.6788 49.7386 27.6603 49.7016 27.6224C49.6646 27.5845 49.6465 27.5372 49.6465 27.4791C49.6465 27.3902 49.6929 27.3159 49.7866 27.257C49.7445 27.2167 49.6821 27.1959 49.5994 27.1959C49.5202 27.1959 49.4447 27.2215 49.3742 27.2734C49.3031 27.3244 49.2605 27.4017 49.2444 27.5055C49.229 27.6092 49.2212 27.7756 49.2212 28.0055V28.3863H49.6166V28.5024H49.2212V30.0537H49.5783V30.169H48.4851V30.0537H48.8023V28.5024H48.4488V28.3863H48.8023C48.7907 27.9861 48.8684 27.6704 49.0353 27.4397C49.2015 27.209 49.3997 27.0938 49.6291 27.0938C49.7401 27.0938 49.8359 27.1277 49.9172 27.1959C49.9406 27.2152 49.9604 27.2358 49.977 27.2575ZM49.977 27.6153V27.2575C50.019 27.3121 50.0399 27.3743 50.0399 27.4436C50.0399 27.5094 50.0203 27.5658 49.981 27.6108L49.977 27.6153ZM50.7062 28.3303V28.4321C50.6084 28.4339 50.5316 28.4625 50.4754 28.5196C50.4174 28.5776 50.3884 28.6565 50.3884 28.7563V29.0397H50.7062V29.1418H50.3884C50.3782 29.5893 50.4014 29.8649 50.4587 29.9685C50.5078 30.0585 50.59 30.1088 50.7062 30.1207V30.2236C50.5016 30.2099 50.322 30.1209 50.167 29.9546C50.0825 29.8642 50.0192 29.7619 49.977 29.6479V28.9029C50.0182 28.7923 50.0798 28.6921 50.1619 28.6023C50.3188 28.4289 50.5009 28.3385 50.7062 28.3303ZM50.7062 29.1418V29.0397H51.0068C51.0183 28.9321 51.0241 28.8508 51.0241 28.7951C51.0241 28.5527 50.9211 28.4321 50.7156 28.4321H50.7062V28.3303C50.7163 28.3299 50.7265 28.3299 50.7367 28.3299C50.9269 28.3299 51.0931 28.4018 51.2354 28.545C51.3784 28.6891 51.4546 28.888 51.464 29.1419L50.7062 29.1418ZM50.7062 30.2236V30.1207C50.724 30.1223 50.7427 30.1234 50.7621 30.1234C51.0633 30.1234 51.2666 29.9376 51.3725 29.566H51.464C51.4175 29.7913 51.3289 29.9577 51.1984 30.0645C51.0677 30.1721 50.9226 30.2256 50.7621 30.2256C50.7434 30.2256 50.7246 30.2248 50.7062 30.2236Z" fill="#003E7B"/>
</svg>
